<?xml version="1.0" standalone="no"?>
<!DOCTYPE svg PUBLIC "-//W3C//DTD SVG 20010904//EN"
 "http://www.w3.org/TR/2001/REC-SVG-20010904/DTD/svg10.dtd">
<svg version="1.0" xmlns="http://www.w3.org/2000/svg"
 width="500.000000pt" height="500.000000pt" viewBox="0 0 500.000000 500.000000"
 preserveAspectRatio="xMidYMid meet">

<g transform="translate(0.000000,500.000000) scale(0.100000,-0.100000)"
fill="#000000" stroke="none">
<path d="M2234 3965 c-278 -43 -511 -133 -735 -283 -351 -236 -584 -565 -686
-969 -26 -102 -28 -121 -28 -338 0 -185 4 -247 18 -314 98 -454 383 -841 795
-1080 303 -176 667 -257 1036 -231 251 18 457 75 681 187 458 230 774 632 881
1123 15 69 19 127 19 305 0 178 -4 236 -19 305 -91 418 -330 765 -695 1011
-222 150 -463 242 -739 284 -123 18 -411 18 -528 0z m327 -402 c248 -168 535
-369 541 -377 5 -6 7 -121 5 -256 -2 -231 -3 -245 -21 -248 -10 -2 -22 2 -27
9 -6 10 -11 10 -22 1 -12 -10 -26 -6 -72 18 -46 24 -69 30 -119 30 -86 0 -140
-18 -324 -108 -159 -78 -252 -113 -351 -132 -68 -13 -222 -13 -255 0 l-26 10
0 328 c0 269 3 331 14 348 8 11 52 45 97 74 l82 54 -7 88 c-7 110 -1 118 93
118 74 0 91 -10 91 -52 0 -29 1 -29 117 52 64 44 120 80 124 80 4 0 31 -16 60
-37z m392 -1005 c38 -21 57 -37 57 -50 0 -31 -26 -31 -77 -1 -40 23 -59 28
-113 28 -76 -1 -127 -19 -297 -103 -65 -33 -153 -71 -196 -86 -140 -48 -336
-59 -368 -20 -22 27 4 34 132 37 109 3 135 7 216 35 50 17 156 63 234 103 213
106 296 118 412 57z m-82 -179 c42 -21 63 -44 54 -59 -9 -15 -27 -13 -80 11
-76 34 -126 24 -289 -54 -187 -90 -244 -107 -365 -107 -97 0 -125 9 -114 36 4
10 27 14 87 14 108 0 210 27 325 85 211 106 289 121 382 74z m-1802 -456 c49
-94 45 -93 86 -14 27 50 43 71 57 71 17 0 18 -8 16 -117 -2 -97 -6 -118 -18
-118 -11 0 -16 17 -20 69 l-5 70 -28 -52 c-16 -29 -34 -52 -42 -52 -8 0 -26
23 -42 52 l-28 52 -5 -70 c-4 -52 -9 -69 -20 -69 -12 0 -16 21 -18 118 -3 112
-2 117 18 117 14 0 28 -16 49 -57z m409 41 c24 -17 30 -62 10 -82 -9 -9 -8
-16 5 -30 23 -25 21 -58 -3 -82 -18 -18 -31 -20 -93 -18 l-72 3 -3 99 c-1 55
0 106 2 113 8 19 125 17 154 -3z m287 0 c24 -25 3 -45 -34 -31 -61 23 -111
-24 -96 -92 9 -43 27 -53 86 -49 65 4 77 -15 24 -37 -94 -40 -180 36 -161 140
10 51 56 85 116 85 31 0 54 -6 65 -16z m245 -6 c-1 -28 -100 -210 -117 -216
-29 -9 -23 32 16 107 23 44 41 82 41 85 0 3 -22 6 -49 6 -49 0 -68 10 -56 30
3 6 42 10 86 10 75 0 79 -1 79 -22z m230 2 c0 -17 -7 -20 -50 -20 -47 0 -50
-2 -50 -25 0 -22 3 -25 24 -19 24 6 65 -10 78 -30 16 -23 8 -83 -13 -102 -38
-35 -139 -18 -139 22 0 11 12 13 54 8 50 -6 54 -5 61 16 9 27 -20 55 -45 44
-8 -4 -26 -7 -40 -8 -23 -1 -25 3 -28 43 -6 85 -1 91 78 91 63 0 70 -2 70 -20z
m138 -28 l3 -42 55 0 54 0 0 46 c0 41 2 45 23 42 21 -3 22 -8 25 -112 3 -111
-3 -131 -35 -119 -8 3 -13 22 -13 49 l0 44 -55 0 -55 0 0 -44 c0 -43 -11 -58
-37 -49 -14 5 -19 214 -6 227 19 18 38 -1 41 -42z m369 36 c22 -28 94 -201 89
-214 -9 -22 -26 -16 -44 16 -15 27 -22 30 -69 30 -42 0 -53 -4 -58 -19 -9 -28
-28 -41 -45 -31 -12 7 -6 26 30 107 49 109 57 123 75 123 7 0 17 -6 22 -12z
m321 -4 c24 -17 30 -62 10 -82 -9 -9 -8 -16 5 -30 23 -25 21 -58 -3 -82 -18
-18 -31 -20 -93 -18 l-72 3 -3 99 c-1 55 0 106 2 113 8 19 125 17 154 -3z
m160 -93 c3 -105 -5 -135 -34 -124 -11 4 -14 30 -14 120 0 113 0 114 23 111
21 -3 22 -8 25 -107z m267 89 c0 -10 -12 -16 -37 -18 l-38 -3 0 -94 c0 -66 -4
-95 -12 -98 -32 -11 -38 5 -38 99 l0 94 -34 0 c-19 0 -38 5 -41 10 -15 24 10
31 103 28 78 -2 97 -6 97 -18z m236 -92 c38 -86 45 -109 34 -118 -15 -12 -45
11 -45 36 0 10 -14 14 -55 14 -49 0 -57 -3 -67 -24 -13 -30 -37 -41 -44 -21
-6 16 4 46 56 158 45 98 60 93 121 -45z m294 92 c0 -10 -12 -16 -37 -18 l-38
-3 0 -94 c0 -66 -4 -95 -12 -98 -32 -11 -38 5 -38 99 l0 94 -34 0 c-19 0 -38
5 -41 10 -15 24 10 31 103 28 78 -2 97 -6 97 -18z"/>
<path d="M2371 3449 c-72 -50 -139 -89 -149 -87 -13 2 -18 15 -20 51 -3 46 -4
47 -38 47 l-34 0 0 -88 0 -89 -90 -62 -90 -62 0 -304 c0 -340 -6 -315 78 -315
132 0 256 38 479 146 203 98 251 114 332 114 67 0 152 -30 194 -67 17 -16 17
-6 15 207 l-3 223 -180 124 c-99 69 -221 154 -271 189 l-91 63 -132 -90z m109
-289 l0 -50 -50 0 -50 0 0 50 0 50 50 0 50 0 0 -50z m130 0 l0 -50 -50 0 -50
0 0 50 0 50 50 0 50 0 0 -50z m-130 -130 l0 -50 -50 0 -50 0 0 50 0 50 50 0
50 0 0 -50z m130 0 l0 -50 -50 0 -50 0 0 50 0 50 50 0 50 0 0 -50z"/>
<path d="M1370 1909 c0 -31 1 -31 37 -26 66 11 67 57 2 57 -37 0 -39 -2 -39
-31z"/>
<path d="M1370 1815 c0 -28 4 -35 19 -35 36 0 71 19 71 39 0 21 -19 31 -61 31
-27 0 -29 -3 -29 -35z"/>
<path d="M2708 1885 c-17 -43 -12 -50 31 -43 20 3 20 4 2 43 l-17 39 -16 -39z"/>
<path d="M2960 1909 c0 -31 1 -31 37 -26 66 11 67 57 2 57 -37 0 -39 -2 -39
-31z"/>
<path d="M2960 1815 c0 -28 4 -35 19 -35 36 0 71 19 71 39 0 21 -19 31 -61 31
-27 0 -29 -3 -29 -35z"/>
<path d="M3642 1885 c-18 -38 -15 -45 18 -45 17 0 30 4 30 10 0 15 -23 60 -30
60 -4 0 -12 -11 -18 -25z"/>
</g>
</svg>
